<svg xmlns="http://www.w3.org/2000/svg" xmlns:xlink="http://www.w3.org/1999/xlink" width="500" zoomAndPan="magnify" viewBox="0 0 375 374.999991" height="500" preserveAspectRatio="xMidYMid meet" version="1.2"><g id="bdde354359"><rect x="0" width="375" y="0" height="374.999991" style="fill:#ffffff;fill-opacity:1;stroke:none;"/><rect x="0" width="375" y="0" height="374.999991" style="fill:#ffffff;fill-opacity:1;stroke:none;"/><path style=" stroke:none;fill-rule:nonzero;fill:#d9d9d9;fill-opacity:1;" d="M 202.785156 33.296875 L 255.238281 85.75 C 255.738281 86.25 256.214844 86.773438 256.664062 87.320312 C 257.113281 87.867188 257.53125 88.433594 257.925781 89.023438 C 258.320312 89.609375 258.683594 90.214844 259.015625 90.839844 C 259.347656 91.464844 259.652344 92.101562 259.921875 92.757812 C 260.191406 93.410156 260.429688 94.074219 260.636719 94.75 C 260.839844 95.429688 261.011719 96.113281 261.152344 96.808594 C 261.289062 97.5 261.390625 98.199219 261.460938 98.902344 C 261.53125 99.609375 261.566406 100.3125 261.566406 101.019531 C 261.566406 101.726562 261.53125 102.433594 261.460938 103.136719 C 261.390625 103.839844 261.289062 104.539062 261.152344 105.234375 C 261.011719 105.925781 260.839844 106.613281 260.636719 107.289062 C 260.429688 107.964844 260.191406 108.632812 259.921875 109.285156 C 259.652344 109.9375 259.347656 110.578125 259.015625 111.199219 C 258.683594 111.824219 258.320312 112.429688 257.925781 113.019531 C 257.53125 113.605469 257.113281 114.175781 256.664062 114.722656 C 256.214844 115.265625 255.738281 115.789062 255.238281 116.292969 L 202.785156 168.746094 C 202.285156 169.246094 201.761719 169.71875 201.214844 170.167969 C 200.667969 170.617188 200.101562 171.039062 199.511719 171.429688 C 198.925781 171.824219 198.320312 172.1875 197.695312 172.519531 C 197.070312 172.855469 196.433594 173.15625 195.78125 173.425781 C 195.125 173.699219 194.460938 173.933594 193.785156 174.140625 C 193.105469 174.347656 192.421875 174.519531 191.726562 174.65625 C 191.035156 174.792969 190.335938 174.898438 189.632812 174.96875 C 188.929688 175.035156 188.222656 175.070312 187.515625 175.070312 C 186.808594 175.070312 186.101562 175.035156 185.398438 174.964844 C 184.695312 174.898438 183.996094 174.792969 183.300781 174.65625 C 182.609375 174.519531 181.921875 174.347656 181.246094 174.140625 C 180.570312 173.933594 179.902344 173.699219 179.25 173.425781 C 178.597656 173.15625 177.957031 172.855469 177.335938 172.519531 C 176.710938 172.1875 176.105469 171.824219 175.515625 171.429688 C 174.929688 171.039062 174.363281 170.617188 173.816406 170.167969 C 173.269531 169.71875 172.746094 169.246094 172.246094 168.746094 L 119.789062 116.292969 C 119.289062 115.789062 118.816406 115.265625 118.367188 114.722656 C 117.917969 114.175781 117.496094 113.605469 117.105469 113.019531 C 116.710938 112.429688 116.347656 111.824219 116.015625 111.199219 C 115.679688 110.578125 115.378906 109.9375 115.109375 109.285156 C 114.835938 108.632812 114.601562 107.964844 114.394531 107.289062 C 114.1875 106.613281 114.019531 105.925781 113.878906 105.234375 C 113.742188 104.539062 113.636719 103.839844 113.570312 103.136719 C 113.5 102.433594 113.464844 101.726562 113.464844 101.019531 C 113.464844 100.3125 113.5 99.609375 113.570312 98.902344 C 113.636719 98.199219 113.742188 97.5 113.878906 96.808594 C 114.019531 96.113281 114.1875 95.429688 114.394531 94.75 C 114.601562 94.074219 114.835938 93.410156 115.109375 92.757812 C 115.378906 92.101562 115.679688 91.464844 116.015625 90.839844 C 116.347656 90.214844 116.710938 89.609375 117.105469 89.023438 C 117.496094 88.433594 117.917969 87.867188 118.367188 87.320312 C 118.816406 86.773438 119.289062 86.25 119.789062 85.75 L 172.246094 33.296875 C 172.746094 32.796875 173.269531 32.320312 173.816406 31.871094 C 174.363281 31.421875 174.929688 31.003906 175.515625 30.609375 C 176.105469 30.214844 176.710938 29.851562 177.335938 29.519531 C 177.957031 29.1875 178.597656 28.882812 179.25 28.613281 C 179.902344 28.34375 180.570312 28.105469 181.246094 27.898438 C 181.921875 27.695312 182.609375 27.523438 183.300781 27.386719 C 183.996094 27.246094 184.695312 27.144531 185.398438 27.074219 C 186.101562 27.003906 186.808594 26.96875 187.515625 26.96875 C 188.222656 26.96875 188.929688 27.003906 189.632812 27.074219 C 190.335938 27.144531 191.035156 27.246094 191.726562 27.386719 C 192.421875 27.523438 193.105469 27.695312 193.785156 27.898438 C 194.460938 28.105469 195.125 28.34375 195.78125 28.613281 C 196.433594 28.882812 197.070312 29.1875 197.695312 29.519531 C 198.320312 29.851562 198.925781 30.214844 199.511719 30.609375 C 200.101562 31.003906 200.667969 31.421875 201.214844 31.871094 C 201.761719 32.320312 202.285156 32.796875 202.785156 33.296875 Z M 202.785156 33.296875 "/><path style=" stroke:none;fill-rule:nonzero;fill:#d9d9d9;fill-opacity:1;" d="M 202.785156 206.289062 L 255.242188 258.742188 C 255.742188 259.242188 256.214844 259.765625 256.664062 260.3125 C 257.113281 260.859375 257.535156 261.425781 257.925781 262.015625 C 258.320312 262.601562 258.683594 263.207031 259.015625 263.832031 C 259.351562 264.457031 259.652344 265.09375 259.921875 265.75 C 260.191406 266.402344 260.429688 267.066406 260.636719 267.742188 C 260.84375 268.421875 261.011719 269.105469 261.152344 269.800781 C 261.289062 270.492188 261.394531 271.191406 261.460938 271.894531 C 261.53125 272.601562 261.566406 273.304688 261.566406 274.011719 C 261.566406 274.71875 261.53125 275.425781 261.460938 276.128906 C 261.394531 276.832031 261.289062 277.53125 261.152344 278.226562 C 261.011719 278.917969 260.84375 279.605469 260.636719 280.28125 C 260.429688 280.957031 260.191406 281.625 259.921875 282.277344 C 259.652344 282.929688 259.351562 283.570312 259.015625 284.191406 C 258.683594 284.816406 258.320312 285.421875 257.925781 286.011719 C 257.535156 286.597656 257.113281 287.167969 256.664062 287.714844 C 256.214844 288.257812 255.742188 288.78125 255.242188 289.285156 L 202.785156 341.738281 C 202.285156 342.238281 201.761719 342.710938 201.214844 343.160156 C 200.667969 343.609375 200.101562 344.03125 199.515625 344.421875 C 198.925781 344.816406 198.320312 345.179688 197.695312 345.511719 C 197.074219 345.847656 196.433594 346.148438 195.78125 346.417969 C 195.128906 346.691406 194.460938 346.929688 193.785156 347.132812 C 193.109375 347.339844 192.421875 347.511719 191.730469 347.648438 C 191.035156 347.785156 190.335938 347.890625 189.632812 347.960938 C 188.929688 348.027344 188.222656 348.0625 187.515625 348.0625 C 186.808594 348.0625 186.101562 348.027344 185.398438 347.960938 C 184.695312 347.890625 183.996094 347.785156 183.304688 347.648438 C 182.609375 347.511719 181.925781 347.339844 181.246094 347.132812 C 180.570312 346.929688 179.90625 346.691406 179.25 346.417969 C 178.597656 346.148438 177.960938 345.847656 177.335938 345.511719 C 176.710938 345.179688 176.105469 344.816406 175.519531 344.421875 C 174.929688 344.03125 174.363281 343.609375 173.816406 343.160156 C 173.269531 342.710938 172.746094 342.238281 172.246094 341.738281 L 119.792969 289.285156 C 119.289062 288.78125 118.816406 288.257812 118.367188 287.714844 C 117.917969 287.167969 117.5 286.597656 117.105469 286.011719 C 116.710938 285.421875 116.347656 284.816406 116.015625 284.191406 C 115.683594 283.570312 115.378906 282.929688 115.109375 282.277344 C 114.839844 281.625 114.601562 280.957031 114.394531 280.28125 C 114.191406 279.605469 114.019531 278.917969 113.878906 278.226562 C 113.742188 277.53125 113.640625 276.832031 113.570312 276.128906 C 113.5 275.425781 113.464844 274.71875 113.464844 274.011719 C 113.464844 273.304688 113.5 272.601562 113.570312 271.894531 C 113.640625 271.191406 113.742188 270.492188 113.878906 269.800781 C 114.019531 269.105469 114.191406 268.421875 114.394531 267.742188 C 114.601562 267.066406 114.839844 266.402344 115.109375 265.75 C 115.378906 265.09375 115.683594 264.457031 116.015625 263.832031 C 116.347656 263.207031 116.710938 262.601562 117.105469 262.015625 C 117.5 261.425781 117.917969 260.859375 118.367188 260.3125 C 118.816406 259.765625 119.289062 259.242188 119.792969 258.742188 L 172.246094 206.289062 C 172.746094 205.789062 173.269531 205.3125 173.816406 204.863281 C 174.363281 204.414062 174.929688 203.996094 175.519531 203.601562 C 176.105469 203.207031 176.710938 202.847656 177.335938 202.511719 C 177.960938 202.179688 178.597656 201.875 179.25 201.605469 C 179.90625 201.335938 180.570312 201.097656 181.246094 200.890625 C 181.925781 200.6875 182.609375 200.515625 183.304688 200.378906 C 183.996094 200.238281 184.695312 200.136719 185.398438 200.066406 C 186.101562 199.996094 186.808594 199.960938 187.515625 199.960938 C 188.222656 199.960938 188.929688 199.996094 189.632812 200.066406 C 190.335938 200.136719 191.035156 200.238281 191.730469 200.378906 C 192.421875 200.515625 193.109375 200.6875 193.785156 200.890625 C 194.460938 201.097656 195.128906 201.335938 195.78125 201.605469 C 196.433594 201.875 197.074219 202.179688 197.695312 202.511719 C 198.320312 202.847656 198.925781 203.207031 199.515625 203.601562 C 200.101562 203.996094 200.667969 204.414062 201.214844 204.863281 C 201.761719 205.3125 202.285156 205.789062 202.785156 206.289062 Z M 202.785156 206.289062 "/><path style=" stroke:none;fill-rule:nonzero;fill:#a6a6a6;fill-opacity:1;" d="M 341.730469 202.78125 L 289.277344 255.234375 C 288.777344 255.734375 288.253906 256.210938 287.707031 256.660156 C 287.160156 257.109375 286.59375 257.527344 286.003906 257.921875 C 285.417969 258.3125 284.8125 258.675781 284.1875 259.011719 C 283.5625 259.34375 282.925781 259.644531 282.273438 259.917969 C 281.617188 260.1875 280.953125 260.425781 280.277344 260.632812 C 279.597656 260.835938 278.914062 261.007812 278.21875 261.144531 C 277.527344 261.285156 276.828125 261.386719 276.125 261.457031 C 275.421875 261.527344 274.714844 261.5625 274.007812 261.5625 C 273.300781 261.5625 272.59375 261.527344 271.890625 261.457031 C 271.1875 261.386719 270.488281 261.285156 269.792969 261.144531 C 269.101562 261.007812 268.414062 260.835938 267.738281 260.632812 C 267.0625 260.425781 266.394531 260.1875 265.742188 259.917969 C 265.089844 259.644531 264.449219 259.34375 263.828125 259.011719 C 263.203125 258.675781 262.597656 258.3125 262.007812 257.921875 C 261.421875 257.527344 260.855469 257.109375 260.308594 256.660156 C 259.761719 256.210938 259.238281 255.734375 258.738281 255.234375 L 206.28125 202.78125 C 205.78125 202.28125 205.308594 201.757812 204.859375 201.210938 C 204.410156 200.664062 203.988281 200.097656 203.597656 199.507812 C 203.203125 198.921875 202.839844 198.316406 202.507812 197.691406 C 202.171875 197.066406 201.871094 196.429688 201.601562 195.773438 C 201.332031 195.121094 201.09375 194.457031 200.886719 193.78125 C 200.679688 193.101562 200.511719 192.417969 200.371094 191.722656 C 200.234375 191.03125 200.128906 190.332031 200.0625 189.628906 C 199.992188 188.921875 199.957031 188.21875 199.957031 187.511719 C 199.957031 186.804688 199.992188 186.097656 200.0625 185.394531 C 200.128906 184.691406 200.234375 183.992188 200.371094 183.296875 C 200.511719 182.605469 200.679688 181.917969 200.886719 181.242188 C 201.09375 180.566406 201.332031 179.898438 201.601562 179.246094 C 201.871094 178.59375 202.171875 177.953125 202.507812 177.332031 C 202.839844 176.707031 203.203125 176.101562 203.597656 175.511719 C 203.988281 174.925781 204.410156 174.355469 204.859375 173.808594 C 205.308594 173.261719 205.78125 172.738281 206.28125 172.238281 L 258.738281 119.785156 C 259.238281 119.285156 259.761719 118.8125 260.308594 118.363281 C 260.855469 117.914062 261.421875 117.492188 262.007812 117.101562 C 262.597656 116.707031 263.203125 116.34375 263.828125 116.011719 C 264.449219 115.675781 265.089844 115.375 265.742188 115.105469 C 266.394531 114.832031 267.0625 114.59375 267.738281 114.390625 C 268.414062 114.183594 269.101562 114.011719 269.792969 113.875 C 270.488281 113.738281 271.1875 113.632812 271.890625 113.5625 C 272.59375 113.496094 273.300781 113.460938 274.007812 113.460938 C 274.714844 113.460938 275.421875 113.496094 276.125 113.5625 C 276.828125 113.632812 277.527344 113.738281 278.21875 113.875 C 278.914062 114.011719 279.597656 114.183594 280.277344 114.390625 C 280.953125 114.59375 281.617188 114.832031 282.273438 115.105469 C 282.925781 115.375 283.5625 115.675781 284.1875 116.011719 C 284.8125 116.34375 285.417969 116.707031 286.003906 117.101562 C 286.59375 117.492188 287.160156 117.914062 287.707031 118.363281 C 288.253906 118.8125 288.777344 119.285156 289.277344 119.785156 L 341.730469 172.238281 C 342.230469 172.738281 342.707031 173.261719 343.15625 173.808594 C 343.605469 174.355469 344.023438 174.925781 344.417969 175.511719 C 344.8125 176.101562 345.175781 176.707031 345.507812 177.332031 C 345.839844 177.953125 346.144531 178.59375 346.414062 179.246094 C 346.683594 179.898438 346.921875 180.566406 347.128906 181.242188 C 347.332031 181.917969 347.503906 182.605469 347.644531 183.296875 C 347.78125 183.992188 347.882812 184.691406 347.953125 185.394531 C 348.023438 186.097656 348.058594 186.804688 348.058594 187.511719 C 348.058594 188.21875 348.023438 188.921875 347.953125 189.628906 C 347.882812 190.332031 347.78125 191.03125 347.644531 191.722656 C 347.503906 192.417969 347.332031 193.101562 347.128906 193.78125 C 346.921875 194.457031 346.683594 195.121094 346.414062 195.773438 C 346.144531 196.429688 345.839844 197.066406 345.507812 197.691406 C 345.175781 198.316406 344.8125 198.921875 344.417969 199.507812 C 344.023438 200.097656 343.605469 200.664062 343.15625 201.210938 C 342.707031 201.757812 342.234375 202.28125 341.730469 202.78125 Z M 341.730469 202.78125 "/><path style=" stroke:none;fill-rule:nonzero;fill:#a6a6a6;fill-opacity:1;" d="M 168.746094 202.78125 L 116.289062 255.234375 C 115.789062 255.734375 115.265625 256.210938 114.71875 256.660156 C 114.171875 257.109375 113.605469 257.527344 113.019531 257.921875 C 112.429688 258.316406 111.824219 258.679688 111.199219 259.011719 C 110.578125 259.34375 109.9375 259.648438 109.285156 259.917969 C 108.628906 260.1875 107.964844 260.425781 107.289062 260.632812 C 106.613281 260.835938 105.925781 261.007812 105.234375 261.144531 C 104.539062 261.285156 103.839844 261.386719 103.136719 261.457031 C 102.433594 261.527344 101.726562 261.5625 101.019531 261.5625 C 100.3125 261.5625 99.605469 261.527344 98.902344 261.457031 C 98.199219 261.386719 97.5 261.285156 96.804688 261.144531 C 96.113281 261.007812 95.425781 260.835938 94.75 260.632812 C 94.074219 260.425781 93.410156 260.1875 92.753906 259.917969 C 92.101562 259.648438 91.464844 259.34375 90.839844 259.011719 C 90.214844 258.679688 89.609375 258.316406 89.023438 257.921875 C 88.433594 257.527344 87.867188 257.109375 87.320312 256.660156 C 86.773438 256.210938 86.25 255.734375 85.75 255.234375 L 33.292969 202.78125 C 32.792969 202.28125 32.320312 201.757812 31.871094 201.210938 C 31.421875 200.664062 31 200.097656 30.609375 199.507812 C 30.214844 198.921875 29.851562 198.316406 29.519531 197.691406 C 29.1875 197.066406 28.882812 196.429688 28.613281 195.773438 C 28.34375 195.121094 28.105469 194.457031 27.898438 193.78125 C 27.695312 193.101562 27.523438 192.417969 27.382812 191.722656 C 27.246094 191.03125 27.144531 190.332031 27.074219 189.628906 C 27.003906 188.921875 26.96875 188.21875 26.96875 187.511719 C 26.96875 186.804688 27.003906 186.097656 27.074219 185.394531 C 27.144531 184.691406 27.246094 183.992188 27.382812 183.296875 C 27.523438 182.605469 27.695312 181.917969 27.898438 181.242188 C 28.105469 180.566406 28.34375 179.898438 28.613281 179.246094 C 28.882812 178.59375 29.1875 177.953125 29.519531 177.332031 C 29.851562 176.707031 30.214844 176.101562 30.609375 175.511719 C 31 174.925781 31.421875 174.355469 31.871094 173.8125 C 32.320312 173.265625 32.792969 172.742188 33.292969 172.242188 L 85.75 119.785156 C 86.25 119.285156 86.773438 118.8125 87.320312 118.363281 C 87.867188 117.914062 88.433594 117.492188 89.023438 117.101562 C 89.609375 116.707031 90.214844 116.34375 90.839844 116.011719 C 91.464844 115.675781 92.101562 115.375 92.753906 115.105469 C 93.410156 114.832031 94.074219 114.597656 94.75 114.390625 C 95.425781 114.183594 96.113281 114.011719 96.804688 113.875 C 97.5 113.738281 98.199219 113.632812 98.902344 113.566406 C 99.605469 113.496094 100.3125 113.460938 101.019531 113.460938 C 101.726562 113.460938 102.433594 113.496094 103.136719 113.566406 C 103.839844 113.632812 104.539062 113.738281 105.234375 113.875 C 105.925781 114.011719 106.613281 114.183594 107.289062 114.390625 C 107.964844 114.597656 108.628906 114.832031 109.285156 115.105469 C 109.9375 115.375 110.578125 115.675781 111.199219 116.011719 C 111.824219 116.34375 112.429688 116.707031 113.019531 117.101562 C 113.605469 117.492188 114.171875 117.914062 114.71875 118.363281 C 115.265625 118.8125 115.789062 119.285156 116.289062 119.785156 L 168.746094 172.242188 C 169.246094 172.742188 169.71875 173.265625 170.167969 173.8125 C 170.617188 174.355469 171.039062 174.925781 171.429688 175.511719 C 171.824219 176.101562 172.1875 176.707031 172.519531 177.332031 C 172.851562 177.953125 173.15625 178.59375 173.425781 179.246094 C 173.695312 179.898438 173.933594 180.566406 174.140625 181.242188 C 174.34375 181.917969 174.515625 182.605469 174.65625 183.296875 C 174.792969 183.992188 174.898438 184.691406 174.964844 185.394531 C 175.035156 186.097656 175.070312 186.804688 175.070312 187.511719 C 175.070312 188.21875 175.035156 188.921875 174.964844 189.628906 C 174.898438 190.332031 174.792969 191.03125 174.65625 191.722656 C 174.515625 192.417969 174.34375 193.101562 174.140625 193.78125 C 173.933594 194.457031 173.695312 195.121094 173.425781 195.773438 C 173.15625 196.429688 172.851562 197.066406 172.519531 197.691406 C 172.1875 198.316406 171.824219 198.921875 171.429688 199.507812 C 171.039062 200.097656 170.617188 200.664062 170.167969 201.210938 C 169.71875 201.757812 169.246094 202.28125 168.746094 202.78125 Z M 168.746094 202.78125 "/></g></svg>